<svg xmlns="http://www.w3.org/2000/svg" enable-background="new 0 0 512 512" viewBox="0 0 512 512" id="Hops">
  <path fill="#fffafa" d="M280.49,7.5h-37.016c-5.525,0-10.004,4.479-10.004,10.004v75.537h45.718L290.382,19
				C291.297,12.948,286.611,7.5,280.49,7.5z" class="colorffd15b svgShape"></path>
  <path fill="#fffafa" d="M256,78.695c-101.892,0-184.784,81.347-187.275,182.64c-0.065,2.635,2.033,4.946,4.663,5.119
				c17.563,1.151,79.883,1.32,114.371-49.757c2.366-3.504,7.819-1.948,7.907,2.279c0.55,26.524,8.59,76.522,57.931,102.948
				c1.503,0.805,3.302,0.805,4.805,0c49.341-26.427,57.381-76.424,57.931-102.948c0.088-4.227,5.541-5.783,7.907-2.279
				c34.488,51.077,96.808,50.908,114.371,49.757c2.63-0.172,4.728-2.484,4.663-5.119C440.784,160.042,357.892,78.695,256,78.695z" class="colorffd15b svgShape"></path>
  <path d="M392.152,126.663c-28.465-27.814-64.033-45.905-102.513-52.58l8.158-53.963c0.763-5.047-0.709-10.161-4.037-14.031
			C290.431,2.219,285.594,0,280.49,0h-37.016c-9.651,0-17.504,7.852-17.504,17.504v55.98c-31.082,4.78-60.39,16.994-86.021,36.029
			c-3.325,2.47-4.019,7.167-1.55,10.492c2.47,3.326,7.169,4.018,10.493,1.549C180.042,98.422,217.08,86.193,256,86.193
			c47.25,0,91.88,18.183,125.669,51.198c33.157,32.398,52.287,75.535,54.03,121.707c-19.673,0.902-74.505-1.078-105.244-46.603
			c-2.906-4.306-8.201-6.216-13.174-4.748c-4.946,1.458-8.341,5.906-8.446,11.068c-0.526,25.311-8.12,71.225-52.835,95.872
			c-44.716-24.648-52.309-70.562-52.835-95.871c-0.105-5.163-3.5-9.612-8.446-11.07c-4.973-1.466-10.267,0.442-13.174,4.748
			c-30.742,45.529-85.582,47.503-105.244,46.603c1.655-43.583,19.03-84.935,49.08-116.679c2.848-3.008,2.718-7.755-0.29-10.602
			c-3.008-2.847-7.755-2.717-10.602,0.291c-33.16,35.029-52.074,80.855-53.259,129.038c-0.162,6.618,5.073,12.354,11.671,12.786
			c3.029,0.199,7.219,0.362,12.263,0.283c-3.176,23.47,0.094,47.217,9.624,69.137c1.894,4.357,6.015,7.243,10.757,7.533
			c2.629,0.161,5.257,0.241,7.887,0.241c1.873,0,3.744-0.053,5.613-0.133c-4.144,33.123,6.909,66.503,30.461,90.781
			c2.418,2.492,5.657,3.828,8.994,3.828c1.285,0,2.584-0.198,3.856-0.604c11.602-3.703,22.386-9.255,31.997-16.316
			c5.918,33.504,25.981,63.325,55.371,81.436c2.037,1.254,4.32,1.882,6.605,1.882c2.284,0,4.569-0.628,6.607-1.883
			c29.386-18.107,49.45-47.928,55.369-81.43c9.609,7.057,20.391,12.606,31.997,16.311c1.272,0.406,2.571,0.604,3.856,0.604
			c3.338,0,6.578-1.336,8.994-3.828c3.913-4.034,7.55-8.403,10.807-12.987c2.4-3.376,1.609-8.058-1.767-10.458
			c-3.376-2.4-8.058-1.608-10.459,1.767c-2.527,3.555-5.316,6.961-8.306,10.142c-24.296-8.177-44.29-25.71-55.474-48.551
			c12.89-16.871,21.525-36.776,24.929-58.038c7.569,5.925,15.789,11.01,24.519,15.116c9.791,4.606,20.13,7.955,30.724,9.997
			c2.416,14.314,1.55,29.081-2.568,42.967c-1.178,3.971,1.087,8.145,5.058,9.323c0.712,0.211,1.43,0.312,2.136,0.312
			c3.235,0,6.221-2.11,7.187-5.369c4.336-14.616,5.558-30.073,3.646-45.209c3.072,0.219,6.153,0.341,9.238,0.341
			c2.629,0,5.259-0.08,7.887-0.241c4.742-0.29,8.863-3.176,10.756-7.531c9.53-21.918,12.8-45.66,9.628-69.127
			c3.169-0.034,5.877-0.155,8.007-0.295c6.598-0.432,11.833-6.168,11.671-12.787C449.515,210.133,428.697,162.373,392.152,126.663z
			 M240.97,71.765V17.504c0-1.381,1.123-2.504,2.504-2.504h37.016c1,0,1.618,0.546,1.898,0.871s0.727,1.019,0.577,2.007
			l-8.195,54.208c-6.203-0.591-12.465-0.893-18.77-0.893C250.958,71.194,245.946,71.389,240.97,71.765z M250.058,328.53
			c1.86,0.996,3.901,1.494,5.942,1.494s4.082-0.498,5.943-1.495c15.657-8.386,27.409-18.953,36.235-30.409
			c3.398,4.641,7.089,9.04,11.049,13.168c-2.569,36.298-22.297,69.233-53.227,88.743c-29.656-18.715-49.228-50.153-52.888-84.817
			c4.639-4.441,8.945-9.241,12.895-14.347C224.564,311.262,235.66,320.818,250.058,328.53z M107.956,335.996
			c-8.363-19.927-10.934-41.496-7.507-62.712c26.2-2.792,62.574-12.905,88.165-45.08c1.318,17.067,5.785,39.222,18.274,59.799
			C184.101,320.042,147.285,337.904,107.956,335.996z M159.229,430.238c-20.449-21.746-29.551-51.572-24.808-80.819
			c11.888-1.939,23.501-5.513,34.43-10.653c7.303-3.435,14.246-7.562,20.754-12.285c3.744,20.358,12.355,39.442,24.866,55.676
			C203.245,404.765,183.346,422.121,159.229,430.238z M304.738,416.918c-2.8,32.497-20.746,62.05-48.409,79.639
			c-27.667-17.592-45.61-47.144-48.41-79.643c6.623-6.758,12.384-14.369,17.104-22.673c7.263,7.344,15.437,13.87,24.411,19.37
			c2.024,1.241,4.295,1.862,6.565,1.862c2.27,0,4.541-0.621,6.565-1.862c9.169-5.619,17.49-12.273,24.847-19.762
			C292.174,402.309,298.012,410.054,304.738,416.918z M408.298,335.996c-39.635,1.913-76.692-16.209-99.438-48.693
			c-0.608-0.868-1.206-1.753-1.794-2.644c11.008-19.609,15.074-40.309,16.32-56.455c27.033,33.987,66.094,43.357,92.489,45.484
			C419.204,294.774,416.608,316.194,408.298,335.996z" fill="#000000" class="color000000 svgShape"></path>
</svg>
